<?xml version="1.0" encoding="iso-8859-1"?>
<!-- Uploaded to: SVG Repo, www.svgrepo.com, Generator: SVG Repo Mixer Tools -->
<svg height="800px" width="800px" version="1.1" id="Layer_1" xmlns="http://www.w3.org/2000/svg" xmlns:xlink="http://www.w3.org/1999/xlink" 
	 viewBox="0 0 512.001 512.001" xml:space="preserve">
<path style="fill:#F77935;" d="M442.45,80.321C397.799,32.886,337.513,4.462,272.698,0.287c-2.236-0.149-4.423,0.643-6.052,2.172
	c-1.631,1.528-2.556,3.664-2.556,5.9v247.372c0,2.161-0.841,4.192-2.369,5.719L86.8,436.368c-1.581,1.582-2.437,3.748-2.364,5.982
	c0.073,2.235,1.067,4.34,2.748,5.816c46.688,40.991,106.642,63.565,168.816,63.565c68.38,0,132.667-26.628,181.02-74.98
	C485.372,388.398,512,324.112,512,255.731C512,190.263,487.3,127.969,442.45,80.321z"/>
<path style="fill:#D9510D;" d="M442.45,80.321C397.799,32.886,337.513,4.462,272.698,0.287c-2.236-0.149-4.423,0.643-6.052,2.172
	c-0.758,0.711-1.357,1.556-1.788,2.478c51.405,10.482,98.427,36.56,134.973,75.385c44.85,47.648,69.55,109.942,69.55,175.41
	c0,68.38-26.628,132.667-74.98,181.02c-43.273,43.272-99.311,69.128-159.62,74.087c7.035,0.585,14.112,0.894,21.221,0.894
	c68.38,0,132.667-26.628,181.02-74.98c48.352-48.353,74.98-112.639,74.98-181.02C512,190.263,487.3,127.969,442.45,80.321z"/>
<path style="fill:#FFDB56;" d="M245.356,2.459c-1.632-1.529-3.818-2.321-6.052-2.172c-64.817,4.176-125.102,32.6-169.752,80.035
	C24.7,127.969,0,190.263,0,255.731c0,62.174,22.574,122.128,63.565,168.816c1.475,1.681,3.58,2.675,5.816,2.748
	c0.087,0.003,0.175,0.004,0.262,0.004c2.142,0,4.201-0.85,5.72-2.368l170.18-170.18c1.516-1.517,2.368-3.574,2.368-5.72V8.359
	C247.912,6.122,246.987,3.987,245.356,2.459z"/>
<path style="fill:#FBA806;" d="M239.303,0.287c-10.754,0.692-21.379,2.067-31.834,4.072v288.465l38.074-38.074
	c1.516-1.517,2.368-3.574,2.368-5.72V8.359c0-2.236-0.924-4.372-2.556-5.9C243.724,0.929,241.538,0.138,239.303,0.287z"/>
</svg>