<svg xmlns="http://www.w3.org/2000/svg" viewBox="0 0 1908 248"><path fill="#9e9ea3" d="M1527.54 0h18.27l13.1 2.17a1.15 1.15 0 0 1 .96 1.12l.19 18.93a.47.47 0 0 1-.61.45c-8.41-2.59-19.5-5.13-27.85-2.58-18.07 5.49-17.03 23.48-16.54 39.02a.92.92 0 0 0 .92.89h43.52q.5 0 .5.5v18.75q0 .75-.75.75h-43.5a.75.75 0 0 0-.75.75V203.5a.5.5 0 0 1-.5.5h-21q-.5 0-.5-.5V81a1 1 0 0 0-1-1h-18.5q-.5 0-.5-.5v-19a.5.5 0 0 1 .5-.5h18.7a.75.75 0 0 0 .75-.8c-1.73-26.85 2.98-54.2 34.59-59.2Z"/><path fill="#1287d9" d="M832.96 19.81a19.1 19.1 0 0 1-19.1 19.1 19.1 19.1 0 0 1-19.1-19.1 19.1 19.1 0 0 1 19.1-19.1 19.1 19.1 0 0 1 19.1 19.1Zm-24.444 15.053a15.98 15.63 109.5 0 0 20.067-9.846 15.98 15.63 109.5 0 0-9.399-20.28 15.98 15.63 109.5 0 0-20.067 9.846 15.98 15.63 109.5 0 0 9.399 20.28Z"/><path fill="#9e9ea3" d="M1908 15.61v8.18c-2.93 11.71-14.43 18.18-25.85 13.76-18.9-7.3-14.37-36.52 6.52-36.73 9.66-.11 16.82 5.53 19.33 14.79Zm-4.24 4.18a14.5 14.5 0 0 0-14.5-14.5 14.5 14.5 0 0 0-14.5 14.5 14.5 14.5 0 0 0 14.5 14.5 14.5 14.5 0 0 0 14.5-14.5Z"/><path fill="#1287d9" d="M733.58 12.95c-26.23 44.08-63.81 80.66-107.63 106.96q-14.02 8.41-29.04 14.4a.79.78-17.1 0 1-1.05-.55c-10.55-46.14 5.54-97.08 49.74-119.81C671.51.62 706.72.2 733.26 11.93a.72.72 0 0 1 .32 1.02ZM584.91 21.18l-8.4 23.72a.62.62 0 0 1-.91.32c-20.46-12.53-40.06-18.75-64.35-15.47-50.18 6.8-65.77 57.3-55.68 100.49 14.03 59.98 79.58 67.02 122.99 34.54a.15.15 0 0 1 .24.09l4.39 26.25a2.15 2.15 0 0 1-1.07 2.23c-59.8 33.47-140.47 13.42-154.92-61.09-5.57-28.73-1.89-60.3 13.65-85.42C471.21-2.27 538.13-5.8 584.41 19.86a1.09 1.09 0 0 1 .5 1.32Z"/><rect width="25" height="24" x="1576" y="5" fill="#9e9ea3" rx=".52"/><path fill="#9e9ea3" d="M875.48 71.03c-6.11-32.68 16.11-58.27 47.57-63.28q47.7-7.6 84.7 22.07a.79.79 0 0 1 .13 1.09l-12.99 17.15a.59.58-50.8 0 1-.85.09c-20.01-17.5-51.45-27.8-77.24-17.1-13.55 5.62-21.43 18.81-18.59 33.47 3.51 18.11 25.04 24.37 40.26 28.08 27.05 6.59 69.44 13.39 74.55 49.39 5.97 42.08-27.42 64.69-65.26 64.94q-44 .28-77.75-28.45-1.88-1.61-2.91-2.78a.73.72 44 0 1-.02-.93q9.66-11.84 12.63-15.1c1.41-1.55 2.74-.21 4 .92 19.64 17.67 42.34 26.96 68.35 25.51 20.32-1.13 40.06-13.48 38.29-36.37-3.54-45.86-103.7-18.94-114.87-78.7Z"/><path fill="#1287d9" d="M0 9h162.48q.52 0 .52.51v24.74q0 .75-.75.75H95.5a.5.5 0 0 0-.5.5v168a.5.5 0 0 1-.5.5H68.75q-.75 0-.75-.75V35.51a.52.51 90 0 0-.51-.52L0 34.96V9Z"/><rect width="27" height="195" x="193" y="9" fill="#1287d9" rx=".41"/><path fill="#1287d9" d="M366.28 103.62c19.98 4.73 36.62 19.59 37.79 41.06 1.94 35.51-20.37 54.17-53.3 58.4q-6.71.87-19.7.89-32.81.07-65.57.01a.5.5 0 0 1-.5-.5V9.5q0-.51.51-.51 35.17-.04 70.23.21c25.08.18 52.18 9.03 60.09 35.9 7.89 26.82-4.1 48.43-29.56 58.36a.08.08 0 0 0 .01.16Zm-1.97-22.81q9.87-12.32 4.27-28.09c-4.12-11.58-17.82-17.6-29.34-18.27-15.53-.92-31.24-.46-46.71-.48a.53.53 0 0 0-.53.53v58.98q0 .49.49.49 17.16.09 34.32.01c13.19-.07 28.75-2.25 37.5-13.17Zm-37.3 98.33c19.32.16 49.31-2.01 49.88-28.8.53-24.3-23.41-31.15-42.65-31.33q-9.35-.09-41.76.02-.48 0-.48.48v58.98a.49.49 0 0 0 .49.49q17.2.01 34.52.16ZM819.29 22.96q2.66 1.93 3.62 5.1.14.46-.3.68c-4.41 2.2-6.74-2.9-9-5.67a1.45 1.44-64.3 0 0-2.56.9l-.07 4.21a.68.68 0 0 1-.64.67l-2.72.2a1.51 1.5-2.1 0 1-1.62-1.5V11.26a1.28 1.28 0 0 1 1.18-1.28c5.36-.38 15.64-2.24 15.87 6.36.07 2.69-1.7 4.27-3.75 5.69a.57.57 0 0 0-.01.93Zm-8.28-8.06v2.88a1.18 1.18 0 0 0 1.18 1.19h1.54a4.46 2.43.1 0 0 4.46-2.42v-.38a4.46 2.43.1 0 0-4.46-2.44h-1.54a1.18 1.18 0 0 0-1.18 1.17Z"/><path fill="#9e9ea3" d="M1886 23.24v6.04a1.01 1.01 0 0 1-1.15 1q-1.85-.27-1.84-2.03.03-8.58-.18-17.15-.02-.56.52-.73c7.34-2.4 15.41-.21 12.25 9.39q-.13.4-.5.61l-1.9 1.06a.59.58 60 0 0-.21.81l3.99 6.54q.29.47-.19.74c-4.28 2.44-6.26-4.37-8.02-7.09a1.51 1.5 28.6 0 0-2.77.81Zm.02-9.12v3.74a1.35 1.35 0 0 0 1.34 1.36h.38a5.13 3.12.1 0 0 5.14-3.11v-.2a5.13 3.12.1 0 0-5.12-3.13h-.38a1.35 1.35 0 0 0-1.36 1.34Z"/><path fill="#1287d9" d="M729.51 22.72c1.84-3.24 3.45-6.49 5.54-9.8a.6.6 0 0 1 .81-.2l8.69 5.02a.88.88 0 0 1 .36 1.13Q710.08 93.04 649.6 148.6q-15.86 14.56-33.28 26.48a.77.76 54.2 0 1-1.04-.17q-7.65-9.99-13.09-21.35a1.04 1.03 62.8 0 1 .43-1.35c53.73-29.47 96.83-76.4 126.89-129.49Z"/><path fill="#9e9ea3" d="M1413.5 60h45a.5.5 0 0 1 .5.5v18.75a.75.75 0 0 1-.75.75h-44.74q-.5 0-.5.5-.03 36.03 0 71.99c0 9.66-.15 21.52 7.12 28.24 9.34 8.63 26.57 6.12 36.75.44a.75.75 0 0 1 1.12.66v18.18a1 1 0 0 1-.57.9q-21.42 9.99-42.93 3.15c-17.39-5.52-23.74-22.27-23.64-39.13q.25-42.18.11-84.21a.73.72 89.6 0 0-.72-.72H1372a1 1 0 0 1-1-1V61a1 1 0 0 1 1-1h18.25q.75 0 .75-.75V17a1 1 0 0 1 1-1h20.25a.75.75 0 0 1 .75.75V59.5q0 .5.5.5Z"/><path fill="#1287d9" d="M643.53 178.77q45.23-45.21 75.29-101.71 14.96-28.1 27-57.21a1.05 1.05 0 0 1 1.57-.46q28.24 19.51 37.19 53.06c17.06 63.99-18.33 132.93-89.36 135.51-21.8.8-42.95-4.17-61.43-16.26q-1.6-1.04-.31-2.44 4.53-4.98 10.05-10.49Z"/><path fill="#9e9ea3" d="M1064.86 248h-21.88l.01-187.01a.99.99 0 0 1 .99-.99H1064a1 1 0 0 1 1 1v24.45a.47.47 0 0 0 .84.28q2.93-3.84 6.21-7.65c23.06-26.78 63.92-28.23 90.13-6.27 22.29 18.68 29.37 47.11 25.1 74.95-4.47 29.1-24.07 51.69-52.88 58.6-28.2 6.78-51.87-4.14-69.06-26.48a.22.22 0 0 0-.4.13l-.08 68.99Zm13.31-153.83q-15.62 17.72-14.06 41.65c1.82 27.94 23.52 51.32 51.96 51.13 40.58-.26 57.94-43.83 45.35-77.31-13.45-35.75-57.83-44.3-83.25-15.47ZM1218.79 90.51c16.58-25.67 45.27-37.46 75.74-32.98 40.83 6 66.65 43.15 62.28 83.48-3.54 32.73-28.09 58.67-59.9 64.9-29.21 5.71-57.39-4.34-75.6-27.93-19.23-24.9-19.09-61.82-2.52-87.47Zm67.486 96.759a55.52 52.45 85.5 0 0 47.932-59.464 55.52 52.45 85.5 0 0-56.644-51.234 55.52 52.45 85.5 0 0-47.932 59.464 55.52 52.45 85.5 0 0 56.644 51.234ZM1659.94 94.23c10.62-22.96 31.7-37.75 57.39-37.37a.67.67 0 0 1 .67.67v22.7a.56.56 0 0 1-.53.56q-5.6.35-11.22 1.3c-29.59 5.02-46.2 30.66-46.18 59.48q.02 31.02-.13 61.95 0 .48-.48.48h-21.96q-.5 0-.5-.5v-143a.5.5 0 0 1 .5-.5h20.75a.75.75 0 0 1 .75.75v33.27q0 2.25.94.21ZM1746.27 141.53c3.3 32.41 31.32 51.34 62.63 45.08 12.53-2.5 22.91-10.08 31.85-18.56a1.05 1.05 0 0 1 1.41-.02l12.57 11.12a.95.95 0 0 1 .1 1.32c-13.3 15.87-30.31 24.78-50.72 26.69-41.1 3.84-75.19-22.58-80.13-63.65-5.58-46.47 24.37-90.01 74.52-86.74 44.64 2.91 63.69 43.77 61.48 83.53a.74.74 0 0 1-.74.7h-112.49q-.54 0-.48.53Zm29.22-62.41c-16.63 7.04-26.89 25.32-29.26 42.38q-.21 1.5 1.3 1.5h88.99q.57 0 .53-.57-.98-13.45-7.42-24.69c-11.06-19.31-33.34-27.42-54.14-18.62Z"/><rect width="23" height="144" x="1577" y="60" fill="#9e9ea3" rx=".43"/></svg>